<svg xmlns="http://www.w3.org/2000/svg" viewBox="0 0 1014.98 608.77"><defs><style>.a{fill:#e19c6e;}.b{fill:#422317;}.c{fill:#151610;}.d{fill:#fde0d8;}.e{fill:#7d2818;}.f{fill:#fef5f3;}.g{fill:#171717;}.h{fill:#b62025;}.i{fill:#f1bc96;}.j{fill:#dca14c;}.k{fill:#b82025;}.l{fill:#6b3515;}.m{fill:#d49c52;}</style></defs><title>Asset 1</title><path class="a" d="M931.8,340.86s68.91-34.63,78.37,19.14,4.38,35.38-10.24,73.3-39.6,22.24-39.6,22.24Z"/><path class="a" d="M91.58,349.41S13.25,314,4.31,367.8s-3.8,35.46,13.77,73.67,45.09,22.72,45.09,22.72Z"/><path class="b" d="M501.3,263c-94.95,0-138.71,19-138.71,19s6.73,71.21-12.33,96.13-243.34,0-272.5,19S69.92,480.19,89,503.92s231,8.31,254.55,23.74,23.57,55,23.57,55H664.24S652.58,532.41,674.68,511s216.19-17.8,243.61-29.67S929,385.24,889.78,375.75,681,387.61,650.69,361.5c-19.45-17.8-19.45-61.71-19.45-61.71S596.26,263,501.3,263Z"/><path class="a" d="M373.56,114.24s-83.08-22.15-83.08,32.44,2,35.6,25.64,70.42,48.21,15,48.21,15Z"/><path class="a" d="M639.4,114.24s64.09-22.15,64.09,32.44-1.58,35.6-19.78,70.42-37.19,15-37.19,15Z"/><path class="b" d="M494.82,0C648.73,0,666.45,177,666.45,177s32,202-171.63,202c-187,0-146.31-189.5-146.31-189.5S340.91,0,494.82,0Z"/><path class="a" d="M500.86,111.73c13.35,0,25.1-31.2,65.91-31.2S619.44,104.7,619.44,156c0,215.21-118.58,197-118.58,197s-107.13-9.5-106.12-200.18c0-24.83,2.37-64.08,45.09-64.08S487.52,111.73,500.86,111.73Z"/><ellipse class="c" cx="557.64" cy="158.52" rx="39.81" ry="37.73"/><ellipse class="d" cx="557.03" cy="158.69" rx="31.86" ry="30.68"/><ellipse class="e" cx="557.1" cy="158.59" rx="26.13" ry="25.23"/><circle class="d" cx="556.75" cy="157.96" r="18.49"/><circle class="c" cx="557.05" cy="158.04" r="10.16"/><circle class="f" cx="556.75" cy="158.04" r="2.61"/><ellipse class="c" cx="456.81" cy="159.07" rx="39.81" ry="37.73"/><ellipse class="d" cx="456.2" cy="159.25" rx="31.86" ry="30.68"/><ellipse class="e" cx="456.27" cy="159.15" rx="26.13" ry="25.23"/><circle class="d" cx="455.92" cy="158.52" r="18.49"/><circle class="c" cx="456.22" cy="158.6" r="10.16"/><circle class="f" cx="455.92" cy="158.6" r="2.61"/><polygon class="g" points="407.32 262.17 423.89 296.21 593.61 297.44 607.62 260.97 498.48 248.31 407.32 262.17"/><polygon class="d" points="428.13 263.73 437.81 300.2 579.87 300.2 590.62 263.73 505.08 251.07 428.13 263.73"/><rect class="h" x="564.51" y="256.35" width="5.21" height="43.59" transform="translate(45.25 -77.72) rotate(8.16)"/><rect class="h" x="535.1" y="254.81" width="4.97" height="48.06" transform="translate(25.67 -44.72) rotate(4.88)"/><rect class="h" x="507.14" y="257.04" width="5.21" height="43.59" transform="translate(-17.27 34.21) rotate(-3.78)"/><rect class="h" x="507.21" y="203.8" width="3.92" height="153.31" transform="translate(228.72 789.62) rotate(-90)"/><rect class="h" x="478.72" y="257.04" width="5.21" height="43.59" transform="translate(-28.95 57.37) rotate(-6.62)"/><rect class="h" x="448.71" y="258.35" width="5.21" height="43.59" transform="translate(-48.41 100.03) rotate(-12.01)"/><path class="i" d="M393.07,294.27c-3.33,9.62,1.48,12.83,1.48,12.83,4.45,1.81,89.8,21.32,215.84,0,0,0,5.62-4,5.62-13.82s-13.81-9.87-13.81-9.87c-93.74,25.23-200,3.46-200,3.46S396.85,285.88,393.07,294.27Z"/><path class="i" d="M621.44,267.24c3.43-10.28-1.53-13.72-1.53-13.72-4.58-1.93-69.26-34.55-222.59,0,0,0-5.8,4.22-5.8,14.77s14.24,10.55,14.24,10.55C499.12,245.61,612,275.15,612,275.15S617.54,276.2,621.44,267.24Z"/><path class="j" d="M654.07,363.55s-13.81,107-133.66,110.28-159.12-68.65-162.78-100c-2.38-20.36-30.8,15.33-30.8,15.33s14.42,157.15,35.54,198.3,292.82,13.33,301.87-4.77S682.74,426.1,654.07,363.55Z"/><circle class="k" cx="514.75" cy="523.64" r="18.86"/><ellipse class="l" cx="97.14" cy="413.6" rx="140.72" ry="79.88" transform="translate(-322.46 347.01) rotate(-67.76)"/><ellipse class="m" cx="97.14" cy="413.6" rx="74.92" ry="39.94" transform="translate(-322.46 347.01) rotate(-67.76)"/><ellipse class="l" cx="909.35" cy="394.32" rx="81.96" ry="148.13" transform="translate(-39.41 107.51) rotate(-6.62)"/><ellipse class="m" cx="909.35" cy="394.32" rx="40.98" ry="78.86" transform="translate(-39.41 107.51) rotate(-6.62)"/></svg>