<svg xmlns="http://www.w3.org/2000/svg" viewBox="0 0 414.04 608.77"><defs><style>.a{fill:#422317;}.b{fill:#e19c6e;}.c{fill:#151610;}.d{fill:#fde0d8;}.e{fill:#7d2818;}.f{fill:#fef5f3;}.g{fill:#171717;}.h{fill:#b62025;}.i{fill:#f1bc96;}.j{fill:#dca14c;}.k{fill:#b82025;}.l{fill:#6b3515;}</style></defs><title>Asset 3</title><path class="a" d="M211.85,263c-95,0-138.71,19-138.71,19s6.73,71.21-12.34,96.13,35.57,19.65,6.41,38.64,2.6,72.39,21.67,96.13-58.37-.66-34.8,14.77,23.56,55,23.56,55H374.79S363.13,532.41,385.23,511s-75.93,19.65-48.51,7.78,57.22-113.56,18-123.06,36.76-8.15,6.5-34.26c-19.45-17.8-19.45-61.71-19.45-61.71S306.8,263,211.85,263Z"/><path class="b" d="M84.1,114.24S1,92.09,1,146.68s2.05,35.6,25.64,70.42,48.2,15,48.2,15Z"/><path class="b" d="M350,114.24S414,92.09,414,146.68s-1.59,35.6-19.78,70.42-37.19,15-37.19,15Z"/><path class="a" d="M205.37,0C359.28,0,377,177,377,177S409,379,205.37,379c-187,0-146.31-189.5-146.31-189.5S51.46,0,205.37,0Z"/><path class="b" d="M211.41,111.73c13.34,0,25.1-31.2,65.9-31.2S330,104.7,330,156c0,215.21-118.57,197-118.57,197s-107.13-9.5-106.13-200.18c0-24.83,2.37-64.08,45.1-64.08S198.07,111.73,211.41,111.73Z"/><ellipse class="c" cx="268.19" cy="158.52" rx="39.81" ry="37.73"/><ellipse class="d" cx="267.58" cy="158.69" rx="31.86" ry="30.68"/><ellipse class="e" cx="267.65" cy="158.59" rx="26.13" ry="25.23"/><circle class="d" cx="267.3" cy="157.96" r="18.49"/><circle class="c" cx="267.6" cy="158.04" r="10.16"/><circle class="f" cx="267.3" cy="158.04" r="2.61"/><ellipse class="c" cx="167.35" cy="159.07" rx="39.81" ry="37.73"/><ellipse class="d" cx="166.74" cy="159.25" rx="31.86" ry="30.68"/><ellipse class="e" cx="166.81" cy="159.15" rx="26.13" ry="25.23"/><circle class="d" cx="166.46" cy="158.52" r="18.49"/><circle class="c" cx="166.76" cy="158.6" r="10.16"/><circle class="f" cx="166.46" cy="158.6" r="2.61"/><polygon class="g" points="117.87 262.17 134.43 296.21 304.15 297.44 318.17 260.97 209.02 248.31 117.87 262.17"/><polygon class="d" points="138.68 263.73 148.36 300.2 290.42 300.2 301.17 263.73 215.63 251.07 138.68 263.73"/><rect class="h" x="275.06" y="256.35" width="5.21" height="43.59" transform="translate(42.31 -36.61) rotate(8.16)"/><rect class="h" x="245.65" y="254.81" width="4.97" height="48.06" transform="translate(24.62 -20.1) rotate(4.88)"/><rect class="h" x="217.69" y="257.04" width="5.21" height="43.59" transform="translate(-17.9 15.13) rotate(-3.78)"/><rect class="h" x="217.75" y="203.8" width="3.92" height="153.31" transform="translate(-60.73 500.16) rotate(-90)"/><rect class="h" x="189.26" y="257.04" width="5.21" height="43.59" transform="translate(-30.88 23.99) rotate(-6.62)"/><rect class="h" x="159.25" y="258.35" width="5.21" height="43.59" transform="translate(-54.75 39.81) rotate(-12.01)"/><path class="i" d="M103.62,294.27c-3.33,9.62,1.47,12.83,1.47,12.83,4.45,1.81,89.81,21.32,215.84,0,0,0,5.63-4,5.63-13.82s-13.81-9.87-13.81-9.87c-93.74,25.23-200,3.46-200,3.46S107.39,285.88,103.62,294.27Z"/><path class="i" d="M332,267.24c3.43-10.28-1.52-13.72-1.52-13.72-4.59-1.93-69.26-34.55-222.59,0,0,0-5.8,4.22-5.8,14.77s14.24,10.55,14.24,10.55c93.36-33.23,206.24-3.69,206.24-3.69S328.09,276.2,332,267.24Z"/><path class="j" d="M364.61,363.55S350.8,470.54,231,473.83s-159.13-68.65-162.79-100c-2.37-20.36-30.79,15.33-30.79,15.33s14.41,157.15,35.54,198.3,292.82,13.33,301.87-4.77S393.28,426.1,364.61,363.55Z"/><circle class="k" cx="225.29" cy="523.64" r="18.86"/><path class="a" d="M410.19,425c-13.1,106.81-110,48.77-141,38.62s6.3-41,6.3-41S423.29,318.22,410.19,425Z"/><path class="a" d="M1,431c16.34,106.81,137.26,48.76,175.9,38.62s-7.86-41-7.86-41S-15.32,324.19,1,431Z"/><path class="b" d="M245.62,406.73s44.08-22.62,44.64,32-.72,35.61-12.94,70.55-25.55,15.3-25.55,15.3Z"/><path class="b" d="M209,400s-46.84-21.67-46.28,32.92,1.52,35.59,15.12,70.26S205,517.94,205,517.94Z"/><ellipse class="l" cx="217.07" cy="439.6" rx="14.14" ry="148.13" transform="translate(-7.74 3.91) rotate(-1.01)"/><ellipse class="l" cx="243.94" cy="439.08" rx="14.14" ry="148.13" transform="translate(-8.57 4.87) rotate(-1.12)"/></svg>