<svg xmlns="http://www.w3.org/2000/svg" viewBox="0 0 589.13 608.77"><defs><style>.a{fill:#e19c6e;}.b{fill:#422317;}.c{fill:#151610;}.d{fill:#fde0d8;}.e{fill:#7d2818;}.f{fill:#fef5f3;}.g{fill:#171717;}.h{fill:#b62025;}.i{fill:#f1bc96;}.j{fill:#dca14c;}.k{fill:#b82025;}.l{fill:#6b3515;}.m{fill:#d49c52;}</style></defs><title>Asset 2</title><path class="a" d="M506,367.36s68.91-34.63,78.37,19.14,4.38,35.38-10.24,73.3S534.48,482,534.48,482Z"/><path class="a" d="M91.58,367.61S13.25,332.15,4.31,386s-3.8,35.46,13.77,73.67,45.09,22.72,45.09,22.72Z"/><path class="b" d="M303.4,263c-94.95,0-138.7,19-138.7,19s6.72,71.21-12.34,96.13S74,383.63,44.8,402.62s-14.39,93.09,4.68,116.82,72.58-7.21,96.15,8.22,23.57,55,23.57,55H466.34S454.68,532.41,476.78,511s19.69-20.52,47.12-32.39,36.41-105.6-2.79-115.1-38.06,24.06-68.32-2.05c-19.45-17.8-19.45-61.71-19.45-61.71S398.36,263,303.4,263Z"/><path class="a" d="M175.66,114.24S92.58,92.09,92.58,146.68s2,35.6,25.64,70.42,48.21,15,48.21,15Z"/><path class="a" d="M441.5,114.24s64.09-22.15,64.09,32.44-1.58,35.6-19.78,70.42-37.19,15-37.19,15Z"/><path class="b" d="M296.92,0C450.83,0,468.55,177,468.55,177s32,202-171.63,202c-187,0-146.31-189.5-146.31-189.5S143,0,296.92,0Z"/><path class="a" d="M303,111.73c13.34,0,25.1-31.2,65.9-31.2S421.54,104.7,421.54,156c0,215.21-118.57,197-118.57,197s-107.14-9.5-106.13-200.18c0-24.83,2.37-64.08,45.1-64.08S289.62,111.73,303,111.73Z"/><ellipse class="c" cx="359.74" cy="158.52" rx="39.81" ry="37.73"/><ellipse class="d" cx="359.13" cy="158.69" rx="31.86" ry="30.68"/><ellipse class="e" cx="359.2" cy="158.59" rx="26.13" ry="25.23"/><circle class="d" cx="358.85" cy="157.96" r="18.49"/><circle class="c" cx="359.15" cy="158.04" r="10.16"/><circle class="f" cx="358.85" cy="158.04" r="2.61"/><ellipse class="c" cx="258.91" cy="159.07" rx="39.81" ry="37.73"/><ellipse class="d" cx="258.3" cy="159.25" rx="31.86" ry="30.68"/><ellipse class="e" cx="258.37" cy="159.15" rx="26.13" ry="25.23"/><circle class="d" cx="258.02" cy="158.52" r="18.49"/><circle class="c" cx="258.32" cy="158.6" r="10.16"/><circle class="f" cx="258.02" cy="158.6" r="2.61"/><polygon class="g" points="209.43 262.17 225.99 296.21 395.71 297.44 409.72 260.97 300.58 248.31 209.43 262.17"/><polygon class="d" points="230.24 263.73 239.91 300.2 381.97 300.2 392.72 263.73 307.19 251.07 230.24 263.73"/><rect class="h" x="366.62" y="256.35" width="5.21" height="43.59" transform="translate(43.24 -49.61) rotate(8.16)"/><rect class="h" x="337.2" y="254.81" width="4.97" height="48.06" transform="translate(24.95 -27.88) rotate(4.88)"/><rect class="h" x="309.24" y="257.04" width="5.21" height="43.59" transform="translate(-17.71 21.17) rotate(-3.78)"/><rect class="h" x="309.31" y="203.8" width="3.92" height="153.31" transform="translate(30.82 591.72) rotate(-90)"/><rect class="h" x="280.82" y="257.04" width="5.21" height="43.59" transform="translate(-30.27 34.55) rotate(-6.62)"/><rect class="h" x="250.81" y="258.35" width="5.21" height="43.59" transform="translate(-52.74 58.86) rotate(-12.01)"/><path class="i" d="M195.17,294.27c-3.32,9.62,1.48,12.83,1.48,12.83,4.45,1.81,89.81,21.32,215.84,0,0,0,5.62-4,5.62-13.82s-13.8-9.87-13.8-9.87c-93.75,25.23-200,3.46-200,3.46S199,285.88,195.17,294.27Z"/><path class="i" d="M423.54,267.24C427,257,422,253.52,422,253.52c-4.59-1.93-69.27-34.55-222.6,0,0,0-5.8,4.22-5.8,14.77s14.24,10.55,14.24,10.55c93.36-33.23,206.24-3.69,206.24-3.69S419.64,276.2,423.54,267.24Z"/><path class="j" d="M456.17,363.55s-13.81,107-133.66,110.28-159.12-68.65-162.78-100c-2.38-20.36-30.8,15.33-30.8,15.33s14.42,157.15,35.54,198.3,292.82,13.33,301.87-4.77S484.84,426.1,456.17,363.55Z"/><circle class="k" cx="316.85" cy="523.64" r="18.86"/><ellipse class="l" cx="91.58" cy="420.82" rx="140.72" ry="59.91" transform="translate(-332.6 346.35) rotate(-67.76)"/><ellipse class="m" cx="91.58" cy="420.82" rx="74.92" ry="29.95" transform="translate(-332.6 346.35) rotate(-67.76)"/><ellipse class="l" cx="497.34" cy="420.82" rx="61.47" ry="148.13" transform="translate(-45.22 60.17) rotate(-6.62)"/><ellipse class="m" cx="497.34" cy="420.82" rx="30.74" ry="78.86" transform="translate(-45.22 60.17) rotate(-6.62)"/></svg>